<svg width="52" height="23" viewBox="0 0 52 23" fill="none" xmlns="http://www.w3.org/2000/svg">
<path d="M9.81447 3.63486C9.21006 4.36513 8.24301 4.94112 7.27595 4.85884C7.15507 3.87143 7.62853 2.8223 8.18257 2.17431C8.78698 1.42346 9.84469 0.888615 10.7009 0.847473C10.8017 1.87603 10.4088 2.88401 9.81447 3.63486ZM10.6909 5.05427C9.29065 4.97198 8.09191 5.86682 7.42706 5.86682C6.75213 5.86682 5.73471 5.09541 4.62663 5.11598C3.18612 5.13655 1.84635 5.96968 1.11098 7.29652C-0.400038 9.95019 0.718118 13.8793 2.17877 16.0392C2.89399 17.1089 3.75024 18.2815 4.87847 18.2403C5.94625 18.1992 6.36934 17.5306 7.65875 17.5306C8.95822 17.5306 9.33094 18.2403 10.4592 18.2198C11.6277 18.1992 12.3631 17.1501 13.0783 16.0804C13.8942 14.8667 14.2267 13.6838 14.2468 13.6221C14.2267 13.6016 11.9903 12.7273 11.9702 10.0942C11.95 7.89308 13.7331 6.84395 13.8136 6.78224C12.8063 5.25998 11.2348 5.09541 10.6909 5.05427ZM18.7799 2.07145V18.1066H21.2177V12.6244H24.5923C27.6748 12.6244 29.8405 10.4645 29.8405 7.33766C29.8405 4.21085 27.715 2.07145 24.6729 2.07145H18.7799ZM21.2177 4.16971H24.0282C26.1436 4.16971 27.3524 5.32169 27.3524 7.34794C27.3524 9.3742 26.1436 10.5365 24.0181 10.5365H21.2177V4.16971ZM34.293 18.2301C35.8242 18.2301 37.2446 17.4381 37.8893 16.1832H37.9396V18.1066H40.1961V10.125C40.1961 7.81079 38.3829 6.31939 35.5925 6.31939C33.0036 6.31939 31.0897 7.83136 31.0191 9.90905H33.2152C33.3965 8.92163 34.293 8.27364 35.522 8.27364C37.0129 8.27364 37.849 8.98335 37.849 10.2896V11.1742L34.8068 11.3593C31.9761 11.5342 30.445 12.717 30.445 14.7741C30.445 16.8518 32.0265 18.2301 34.293 18.2301ZM34.9478 16.3272C33.6483 16.3272 32.8223 15.6895 32.8223 14.7124C32.8223 13.7044 33.6181 13.1181 35.1392 13.0256L37.849 12.8507V13.7558C37.849 15.2575 36.5999 16.3272 34.9478 16.3272ZM43.2081 22.4677C45.5854 22.4677 46.7036 21.542 47.6807 18.7341L51.9619 6.47367H49.4838L46.6129 15.9467H46.5625L43.6916 6.47367H41.143L45.2731 18.1478L45.0515 18.8575C44.6788 20.0609 44.0744 20.5237 42.9965 20.5237C42.8051 20.5237 42.4324 20.5032 42.2813 20.4826V22.406C42.4223 22.4471 43.0267 22.4677 43.2081 22.4677Z" fill="#19073A"/>
</svg>
