<svg width="27" height="27" viewBox="0 0 27 27" fill="none" xmlns="http://www.w3.org/2000/svg">
<g id="Group">
<path id="Vector" d="M22.2941 26.7682L17.6789 22.1538L15.4418 24.3909C15.2487 24.584 14.9683 24.6636 14.701 24.6018C14.5697 24.5709 14.4486 24.5069 14.3491 24.4159C14.2495 24.3249 14.175 24.2099 14.1324 24.0819L9.65751 10.6578C9.61097 10.5185 9.60417 10.3689 9.63787 10.2259C9.67157 10.0829 9.74444 9.95215 9.84831 9.84825C10.0592 9.63737 10.3736 9.56011 10.6579 9.65746L24.082 14.1324C24.21 14.1749 24.3249 14.2495 24.4159 14.349C24.5069 14.4485 24.5709 14.5697 24.6019 14.7009C24.6327 14.8321 24.6295 14.9691 24.5926 15.0987C24.5557 15.2283 24.4863 15.3464 24.391 15.4417L22.1539 17.6788L26.7683 22.294C27.0773 22.603 27.0773 23.1036 26.7683 23.4125L23.4126 26.7682C23.1036 27.0773 22.6031 27.0773 22.2941 26.7682ZM10.2832 6.32813C9.84599 6.32813 9.49219 5.97433 9.49219 5.53711V0.791016C9.49219 0.353795 9.84599 0 10.2832 0C10.7204 0 11.0742 0.353795 11.0742 0.791016V5.53711C11.0742 5.97433 10.7204 6.32813 10.2832 6.32813ZM6.36831 7.48686L3.01187 4.13042C2.7029 3.82145 2.7029 3.32084 3.01187 3.01187C3.32084 2.7029 3.82145 2.7029 4.13042 3.01187L7.48681 6.36826C7.79578 6.67723 7.79578 7.17784 7.48681 7.48681C7.17784 7.79583 6.67728 7.79583 6.36831 7.48686ZM3.01187 17.5545C2.7029 17.2456 2.7029 16.745 3.01187 16.436L6.36826 13.0796C6.67723 12.7706 7.17784 12.7706 7.48681 13.0796C7.79578 13.3886 7.79578 13.8892 7.48681 14.1982L4.13042 17.5545C3.82145 17.8635 3.3209 17.8635 3.01187 17.5545ZM13.0796 7.48686C12.7706 7.17789 12.7706 6.67728 13.0796 6.36831L16.4359 3.01192C16.7449 2.70295 17.2455 2.70295 17.5545 3.01192C17.8635 3.3209 17.8635 3.8215 17.5545 4.13047L14.1981 7.48686C13.8891 7.79583 13.3886 7.79583 13.0796 7.48686ZM5.53711 11.0742H0.791016C0.353795 11.0742 0 10.7204 0 10.2832C0 9.84598 0.353795 9.49219 0.791016 9.49219H5.53711C5.97433 9.49219 6.32813 9.84598 6.32813 10.2832C6.32813 10.7204 5.97433 11.0742 5.53711 11.0742Z" fill="#6226CF"/>
</g>
</svg>
