<svg width="27" height="27" viewBox="0 0 27 27" fill="none" xmlns="http://www.w3.org/2000/svg">
<g id="Frame" clip-path="url(#clip0_178_187)">
<g id="Group">
<path id="Vector" d="M14.0694 12.9561C14.065 12.9514 14.0637 12.9453 14.0592 12.9407L9.54491 8.42642V5.58989C9.54491 5.37974 9.46148 5.17893 9.31319 5.03059L4.5671 0.231811C4.45644 0.121221 4.31548 0.0459116 4.16204 0.0153975C4.0086 -0.0151166 3.84955 0.000533959 3.705 0.0603718C3.56042 0.120159 3.43684 0.221519 3.34993 0.351608C3.26302 0.481697 3.21668 0.63466 3.21678 0.791112V3.16416H0.791002C0.634559 3.16403 0.4816 3.21036 0.351517 3.29726C0.221433 3.38417 0.120083 3.50774 0.060315 3.65232C0.000321639 3.79685 -0.0154067 3.95594 0.0151239 4.10942C0.0456545 4.2629 0.121069 4.40386 0.231807 4.51442L5.03064 9.3132C5.10405 9.38668 5.19123 9.44498 5.28719 9.48475C5.38315 9.52452 5.48601 9.54498 5.58988 9.54497H8.42641L12.9407 14.0592C12.9452 14.0638 12.9514 14.065 12.956 14.0695C13.264 14.3634 13.7318 14.3673 14.0439 14.0695C14.3725 13.7558 14.3651 13.2659 14.0694 12.9561Z" fill="#6226CF"/>
<path id="Vector_2" d="M13.5001 -9.15527e-05C11.4761 -9.15527e-05 9.5624 0.51486 7.83915 1.31922L10.2657 3.74574C11.2841 3.40708 12.3695 3.21671 13.5001 3.21671C19.1701 3.21665 23.7832 7.82986 23.7832 13.4998C23.7832 19.1698 19.1701 23.783 13.5001 23.783C7.83008 23.783 3.21693 19.1698 3.21693 13.4998C3.21693 12.3692 3.40735 11.2837 3.74596 10.2653L1.31944 7.83882C0.515187 9.56213 0.000183105 11.4758 0.000183105 13.4998C0.000183105 20.9147 6.08515 26.9997 13.5001 26.9997C20.915 26.9997 27 20.9147 27 13.4998C27 6.08488 20.9151 -9.15527e-05 13.5001 -9.15527e-05Z" fill="#6226CF"/>
<path id="Vector_3" d="M13.5001 6.38091C12.664 6.38091 11.873 6.55229 11.127 6.81823V7.77135L12.9557 9.60002C13.1353 9.57492 13.3137 9.54497 13.5001 9.54497C15.6808 9.54497 17.4551 11.3193 17.4551 13.5C17.4551 15.6808 15.6808 17.4551 13.5001 17.4551C11.3193 17.4551 9.54499 15.6808 9.54499 13.5C9.54499 13.3136 9.57494 13.1352 9.60005 12.9557L7.77143 11.1269H6.81831C6.55237 11.8729 6.38098 12.6639 6.38098 13.5C6.38098 17.4257 9.57442 20.6191 13.5001 20.6191C17.4257 20.6191 20.6192 17.4257 20.6192 13.5C20.6192 9.57429 17.4258 6.38091 13.5001 6.38091Z" fill="#6226CF"/>
</g>
</g>
<defs>
<clipPath id="clip0_178_187">
<rect width="27" height="27" fill="white"/>
</clipPath>
</defs>
</svg>
