<svg width="32" height="33" viewBox="0 0 32 33" fill="none" xmlns="http://www.w3.org/2000/svg">
<g id="Frame" clip-path="url(#clip0_128_303)">
<path id="Vector" d="M31.9831 17.0147C31.9831 15.7037 31.8742 14.747 31.6386 13.7549H16.3187V19.6722H25.3112C25.1299 21.1427 24.1509 23.3573 21.9753 24.8454L21.9448 25.0435L26.7886 28.7105L27.1242 28.7432C30.2063 25.9616 31.9831 21.8691 31.9831 17.0147Z" fill="#4285F4"/>
<path id="Vector_2" d="M16.3186 32.6055C20.7241 32.6055 24.4226 31.1881 27.1241 28.7432L21.9751 24.8455C20.5973 25.7845 18.748 26.44 16.3186 26.44C12.0036 26.44 8.34139 23.6585 7.0359 19.814L6.84455 19.8299L1.80781 23.639L1.74194 23.8179C4.42517 29.0266 9.93673 32.6055 16.3186 32.6055Z" fill="#17BF28"/>
<path id="Vector_3" d="M7.03635 19.8139C6.69189 18.8218 6.49253 17.7587 6.49253 16.6603C6.49253 15.5618 6.69189 14.4989 7.01823 13.5068L7.0091 13.2955L1.90926 9.42517L1.7424 9.50273C0.636513 11.6642 0.00195312 14.0914 0.00195312 16.6603C0.00195312 19.2293 0.636513 21.6564 1.7424 23.8178L7.03635 19.8139Z" fill="#FEBA16"/>
<path id="Vector_4" d="M16.3186 6.88077C19.3825 6.88077 21.4493 8.17408 22.6278 9.25487L27.2328 4.8611C24.4046 2.29219 20.7241 0.715393 16.3186 0.715393C9.93672 0.715393 4.42517 4.29414 1.74194 9.50281L7.01777 13.5068C8.34139 9.66232 12.0036 6.88077 16.3186 6.88077Z" fill="#E52323"/>
</g>
<defs>
<clipPath id="clip0_128_303">
<rect width="32" height="32" fill="white" transform="translate(0 0.715332)"/>
</clipPath>
</defs>
</svg>
