<svg width="58" height="24" viewBox="0 0 58 24" fill="none" xmlns="http://www.w3.org/2000/svg">
<path d="M27.4793 11.3927V18.174H25.3723V1.42707H30.9604C31.6274 1.41285 32.2906 1.53364 32.9116 1.78248C33.5327 2.03131 34.0993 2.40327 34.5789 2.87688C35.0632 3.32174 35.4487 3.86731 35.7094 4.47692C35.9701 5.08654 36.1 5.74607 36.0904 6.4112C36.1042 7.07989 35.9763 7.74373 35.7155 8.35723C35.4546 8.97073 35.0668 9.51938 34.5789 9.96557C33.6017 10.917 32.3955 11.3922 30.9604 11.3913H27.4793V11.3927ZM27.4793 3.48887V9.33487H31.0127C31.4001 9.34659 31.7856 9.27564 32.1446 9.12654C32.5035 8.97744 32.8281 8.75348 33.0974 8.46899C33.3654 8.203 33.5784 7.88485 33.7238 7.53335C33.8693 7.18185 33.9442 6.80414 33.9442 6.42256C33.9442 6.04098 33.8693 5.66327 33.7238 5.31177C33.5784 4.96027 33.3654 4.64212 33.0974 4.37613C32.8314 4.08564 32.508 3.8562 32.1486 3.703C31.7892 3.54981 31.402 3.47636 31.0127 3.48754H27.4793V3.48887Z" fill="#19073A"/>
<path d="M40.9455 6.34171C42.5028 6.34171 43.7321 6.76663 44.6334 7.61647C45.5346 8.46631 45.9848 9.6315 45.9839 11.112V18.174H43.9686V16.5839H43.8769C43.0045 17.8934 41.8441 18.5481 40.3959 18.5481C39.1596 18.5481 38.1253 18.174 37.293 17.4257C36.8936 17.0823 36.5742 16.6522 36.3582 16.1667C36.1423 15.6813 36.0351 15.1527 36.0445 14.6196C36.0445 13.434 36.4834 12.491 37.361 11.7908C38.2387 11.0907 39.4104 10.7397 40.8762 10.7379C42.1272 10.7379 43.1576 10.9717 43.9672 11.4394V10.9477C43.9696 10.5842 43.8928 10.2248 43.7422 9.89549C43.5917 9.56615 43.3713 9.27514 43.097 9.04356C42.5398 8.53028 41.8137 8.25022 41.0633 8.25919C39.8864 8.25919 38.955 8.76607 38.2693 9.77982L36.4136 8.58657C37.4343 7.08999 38.945 6.34171 40.9455 6.34171ZM38.2195 14.6664C38.2181 14.9402 38.2808 15.2104 38.4024 15.4544C38.5239 15.6985 38.7008 15.9093 38.9184 16.0694C39.3844 16.4437 39.9627 16.642 40.5555 16.6307C41.4446 16.6291 42.2969 16.2678 42.9255 15.6258C43.6235 14.955 43.9725 14.168 43.9725 13.2647C43.3155 12.7302 42.3995 12.463 41.2243 12.463C40.3684 12.463 39.6547 12.6736 39.0833 13.095C38.5061 13.5226 38.2195 14.0424 38.2195 14.6664Z" fill="#19073A"/>
<path d="M57.5527 6.71585L50.5173 23.2249H48.3423L50.9531 17.4484L46.3269 6.71585H48.6171L51.9608 14.947H52.0066L55.2586 6.71585H57.5527Z" fill="#19073A"/>
<path d="M18.9652 9.93082C18.966 9.2752 18.9117 8.62072 18.8029 7.97458H9.91699V11.6799H15.0064C14.9023 12.2717 14.6819 12.8359 14.3584 13.3383C14.035 13.8408 13.6153 14.2712 13.1246 14.6036V17.0088H16.162C17.9405 15.3345 18.9652 12.8585 18.9652 9.93082Z" fill="#4285F4"/>
<path d="M9.917 19.3325C12.4598 19.3325 14.6008 18.48 16.162 17.0101L13.1246 14.6049C12.2792 15.1902 11.1903 15.5243 9.917 15.5243C7.45931 15.5243 5.37328 13.8326 4.62734 11.553H1.49829V14.0317C2.28254 15.6251 3.48509 16.9646 4.9717 17.9007C6.45831 18.8367 8.17046 19.3324 9.917 19.3325Z" fill="#34A853"/>
<path d="M4.62724 11.553C4.23289 10.3585 4.23289 9.06489 4.62724 7.87036V5.39166H1.4982C0.838463 6.7321 0.494873 8.2115 0.494873 9.71169C0.494873 11.2119 0.838463 12.6913 1.4982 14.0317L4.62724 11.553Z" fill="#FBBC04"/>
<path d="M9.917 3.89909C11.2607 3.87667 12.5591 4.39506 13.5316 5.34221L16.2209 2.59627C14.5156 0.960827 12.2564 0.062942 9.917 0.0908412C8.17046 0.0909225 6.45831 0.586655 4.9717 1.52269C3.48509 2.45873 2.28254 3.79823 1.49829 5.39165L4.62734 7.87036C5.37328 5.59075 7.45931 3.89909 9.917 3.89909Z" fill="#EA4335"/>
</svg>
