<svg width="32" height="28" viewBox="0 0 32 28" fill="none" xmlns="http://www.w3.org/2000/svg">
<g id="Group">
<path id="Vector" d="M27.6743 8.39429H23.3314C22.9156 8.39428 22.5168 8.55906 22.2223 8.85252C21.9277 9.14599 21.7615 9.54422 21.76 9.96V27.2571H29.2457V9.96C29.2442 9.54422 29.078 9.14599 28.7834 8.85252C28.4889 8.55906 28.0901 8.39428 27.6743 8.39429ZM15.4286 14.3943V27.2571H20.6171V12.8343H17C16.7944 12.8335 16.5906 12.8733 16.4004 12.9513C16.2101 13.0293 16.0371 13.144 15.8912 13.2888C15.7453 13.4337 15.6293 13.6059 15.5499 13.7955C15.4706 13.9852 15.4293 14.1887 15.4286 14.3943ZM9.09714 18.8229V27.2571H14.2857V17.2571H10.6629C10.2476 17.2571 9.84936 17.4221 9.55573 17.7157C9.2621 18.0094 9.09714 18.4076 9.09714 18.8229ZM2.75429 23.2514V27.2514H7.95429V21.6857H4.32571C3.90993 21.6857 3.5111 21.8505 3.21656 22.1439C2.92203 22.4374 2.7558 22.8357 2.75429 23.2514ZM5.37714 15.88C10.7464 14.5174 15.5384 11.4716 19.0514 7.18857L18.64 9.78286C18.6165 9.93441 18.6542 10.0891 18.7447 10.2129C18.8353 10.3366 18.9713 10.4194 19.1229 10.4429C19.2744 10.4663 19.4291 10.4287 19.5529 10.3381C19.6766 10.2476 19.7594 10.1116 19.7829 9.96L20.5714 5.10286C20.5947 4.95532 20.5593 4.80454 20.4728 4.68278C20.3863 4.56102 20.2556 4.47798 20.1086 4.45143C20.0068 4.43796 19.9032 4.44773 19.8057 4.48L15.3886 6.19429C15.2469 6.24809 15.1323 6.35597 15.0702 6.49422C15.008 6.63246 15.0033 6.78973 15.0571 6.93143C15.1109 7.07313 15.2188 7.18765 15.3571 7.24981C15.4953 7.31196 15.6526 7.31666 15.7943 7.26286L18.3657 6.28C16.8011 8.22596 14.954 9.92671 12.8857 11.3257C10.5441 12.8946 7.95576 14.0594 5.22857 14.7714C5.10492 14.8152 5.00008 14.9002 4.93167 15.0121C4.86325 15.124 4.83542 15.256 4.85284 15.386C4.87026 15.516 4.93188 15.6361 5.02735 15.726C5.12282 15.816 5.24633 15.8703 5.37714 15.88ZM30.7314 5.27429C30.7981 5.13654 30.8238 4.98257 30.8055 4.83065C30.7873 4.67873 30.7259 4.53522 30.6286 4.41714L29.4 2.81143L30.6743 1.32571C30.7663 1.203 30.8225 1.05715 30.8365 0.9044C30.8506 0.75165 30.8219 0.598001 30.7538 0.460566C30.6857 0.32313 30.5808 0.207304 30.4507 0.125987C30.3206 0.0446701 30.1705 0.00105516 30.0171 0H25.5029C25.3513 0 25.206 0.060204 25.0988 0.167368C24.9916 0.274531 24.9314 0.419876 24.9314 0.571429V7.25143H26.0743V5.75429H29.9829C30.1408 5.75582 30.2958 5.71122 30.4288 5.62596C30.5617 5.5407 30.6669 5.41847 30.7314 5.27429ZM0 26.6857C0 26.8373 0.060204 26.9826 0.167368 27.0898C0.274531 27.1969 0.419876 27.2571 0.571429 27.2571H1.61143V26.1143H0.571429C0.419876 26.1143 0.274531 26.1745 0.167368 26.2817C0.060204 26.3888 0 26.5342 0 26.6857ZM31.4286 26.1143H30.3886V27.2571H31.4286C31.5801 27.2571 31.7255 27.1969 31.8326 27.0898C31.9398 26.9826 32 26.8373 32 26.6857C32 26.5342 31.9398 26.3888 31.8326 26.2817C31.7255 26.1745 31.5801 26.1143 31.4286 26.1143Z" fill="#6226CF"/>
</g>
</svg>
