<svg viewBox="0 0 3345 1502" fill="none" xmlns="http://www.w3.org/2000/svg">
<path d="M1762.23 775.141C1762.86 775.588 1763.35 776.124 1763.97 776.615L1762.23 775.275V775.097V775.141Z" fill="url(#paint0_linear_120_45)"/>
<path d="M1762.23 775.276L1763.97 776.615C1763.35 776.124 1762.86 775.588 1762.23 775.142V775.32V775.276Z" fill="url(#paint1_linear_120_45)"/>
<path d="M244.409 1234.89C242.001 1232.92 239.28 1231.4 236.203 1230.33C233.125 1229.26 229.869 1228.77 226.524 1228.77C220.191 1228.77 214.839 1230.47 210.424 1233.81C206.008 1237.21 202.931 1241.81 201.281 1247.75L171.399 1354.01L141.472 1247.75C139.777 1241.85 136.745 1237.21 132.329 1233.81C127.914 1230.42 122.517 1228.77 116.229 1228.77C113.017 1228.77 109.851 1229.31 106.773 1230.33C103.696 1231.4 100.931 1232.92 98.5671 1234.89C96.1587 1236.85 94.2409 1239.17 92.7691 1241.85C91.2973 1244.53 90.5391 1247.52 90.5391 1250.92V1379.95C90.5391 1384.01 92.0555 1387.58 95.0883 1390.58C98.1211 1393.61 101.644 1395.13 105.703 1395.13C109.762 1395.13 113.508 1393.61 116.541 1390.58C119.574 1387.54 121.09 1384.01 121.09 1379.95V1270.29L151.641 1379.95C152.89 1384.59 155.298 1388.3 158.822 1391.02C162.345 1393.75 166.537 1395.13 171.443 1395.13C176.349 1395.13 180.586 1393.75 184.199 1391.02C187.767 1388.3 190.22 1384.59 191.469 1379.95L222.02 1270.29V1379.95C222.02 1384.01 223.492 1387.58 226.435 1390.58C229.379 1393.61 232.947 1395.13 237.184 1395.13C241.421 1395.13 244.989 1393.61 247.932 1390.58C250.876 1387.54 252.348 1384.01 252.348 1379.95V1250.92C252.348 1247.52 251.634 1244.53 250.252 1241.85C248.824 1239.17 246.951 1236.85 244.587 1234.89H244.409Z" fill="url(#paint2_linear_120_45)"/>
<path d="M377.538 1256.41C381.329 1256.41 384.54 1255.07 387.216 1252.39C389.892 1249.71 391.23 1246.41 391.23 1242.48C391.23 1238.55 389.892 1235.47 387.216 1232.79C384.54 1230.11 381.329 1228.77 377.538 1228.77H288.249C284.859 1228.77 282.094 1229.35 279.909 1230.56C277.723 1231.76 276.028 1233.23 274.735 1234.98C273.486 1236.72 272.639 1238.55 272.193 1240.47C271.791 1242.34 271.568 1243.95 271.568 1245.2V1378.43C271.568 1381.38 272.059 1383.92 273.04 1386.02C274.021 1388.12 275.315 1389.86 276.92 1391.2C278.526 1392.54 280.31 1393.52 282.272 1394.15C284.235 1394.77 286.197 1395.08 288.16 1395.08H377.449C381.24 1395.08 384.451 1393.75 387.127 1391.07C389.803 1388.39 391.141 1385.08 391.141 1381.15C391.141 1377.23 389.803 1374.14 387.127 1371.47C384.451 1368.79 381.24 1367.45 377.449 1367.45H303.725V1320.21H365.63C369.555 1320.21 372.855 1318.83 375.531 1316.1C378.207 1313.38 379.545 1310.07 379.545 1306.28C379.545 1302.48 378.207 1299.22 375.531 1296.46C372.855 1293.73 369.555 1292.35 365.63 1292.35H303.725V1256.32H377.449L377.538 1256.41Z" fill="url(#paint3_linear_120_45)"/>
<path d="M526.101 1255.02C520.704 1247.21 514.014 1240.91 506.076 1236.05C498.137 1231.18 489.128 1228.77 479.003 1228.77H421.737C418.347 1228.77 415.582 1229.35 413.397 1230.56C411.211 1231.76 409.517 1233.23 408.223 1234.98C406.974 1236.72 406.127 1238.55 405.681 1240.47C405.28 1242.34 405.057 1243.95 405.057 1245.2V1378.43C405.057 1381.38 405.547 1383.92 406.528 1386.02C407.51 1388.12 408.803 1389.86 410.409 1391.2C412.014 1392.54 413.798 1393.52 415.761 1394.15C417.723 1394.77 419.685 1395.08 421.648 1395.08H478.914C489.172 1395.08 498.226 1392.67 506.076 1387.81C513.925 1382.94 520.571 1376.6 525.967 1368.74C531.364 1360.88 535.467 1352 538.277 1342.09C541.087 1332.18 542.469 1322.08 542.469 1311.82C542.469 1301.55 541.042 1291.63 538.277 1281.68C535.467 1271.72 531.364 1262.79 525.967 1255.02H526.101ZM508.306 1332.18C506.878 1338.87 504.515 1344.81 501.125 1349.99C497.735 1355.21 493.275 1359.37 487.745 1362.54C482.215 1365.71 475.302 1367.27 467.006 1367.27H437.302V1256.36H467.006C475.302 1256.36 482.215 1257.97 487.745 1261.23C493.275 1264.44 497.735 1268.69 501.125 1273.86C504.515 1279.04 506.878 1284.98 508.306 1291.59C509.688 1298.2 510.402 1304.94 510.402 1311.82C510.402 1318.69 509.688 1325.48 508.306 1332.18Z" fill="url(#paint4_linear_120_45)"/>
<path d="M572.529 1228.77C568.024 1228.77 564.233 1230.33 561.156 1233.41C558.079 1236.49 556.518 1240.29 556.518 1244.8V1379.1C556.518 1383.61 558.079 1387.41 561.156 1390.49C564.233 1393.57 568.024 1395.13 572.529 1395.13C577.034 1395.13 580.869 1393.57 583.991 1390.49C587.158 1387.41 588.719 1383.61 588.719 1379.1V1244.8C588.719 1240.29 587.158 1236.49 583.991 1233.41C580.825 1230.33 576.989 1228.77 572.529 1228.77Z" fill="url(#paint5_linear_120_45)"/>
<path d="M691.745 1246.9C690.764 1244.08 689.56 1241.36 688.177 1238.77C686.75 1236.18 685.145 1233.9 683.227 1232.03C681.309 1230.15 679.168 1228.64 676.804 1227.47C674.396 1226.36 671.765 1225.78 668.821 1225.78C665.877 1225.78 662.978 1226.36 660.615 1227.47C658.206 1228.59 656.11 1230.11 654.281 1232.03C652.453 1233.9 650.847 1236.18 649.42 1238.77C647.993 1241.36 646.833 1244.08 645.852 1246.9L602.055 1372.98C601.341 1375.08 600.984 1377.05 600.984 1378.88C600.984 1383.07 602.412 1386.87 605.311 1390.17C608.165 1393.48 612.09 1395.13 616.996 1395.13C620.385 1395.13 623.507 1394.15 626.362 1392.18C629.216 1390.22 631.223 1387.54 632.383 1384.19L644.38 1343.92H693.262L705.259 1384.19C706.374 1387.58 708.381 1390.22 711.28 1392.18C714.135 1394.15 717.301 1395.13 720.646 1395.13C723.456 1395.13 725.82 1394.59 727.827 1393.57C729.789 1392.5 731.395 1391.2 732.688 1389.68C733.937 1388.12 734.918 1386.38 735.543 1384.41C736.167 1382.45 736.479 1380.62 736.479 1378.92C736.479 1377.09 736.122 1375.13 735.409 1373.03L691.79 1246.94L691.745 1246.9ZM651.516 1319.23L668.776 1261.05L685.814 1319.23H651.472H651.516Z" fill="url(#paint6_linear_120_45)"/>
<path d="M944.138 1370.62C940.704 1370.62 937.047 1369.59 933.122 1367.54C929.242 1365.48 925.451 1362.54 921.794 1358.7C926.521 1353.83 930.847 1348.56 934.772 1342.98C938.697 1337.35 942.042 1331.42 944.807 1325.12C947.572 1318.83 949.713 1312.22 951.274 1305.34C952.791 1298.47 953.593 1291.37 953.593 1284.09C953.593 1281.01 953.415 1278.37 953.014 1276.1C952.657 1273.86 952.032 1271.54 951.23 1269.13H921.035C921.794 1271.36 922.329 1273.82 922.686 1276.45C923.042 1279.09 923.176 1281.81 923.176 1284.67C923.176 1294.09 921.838 1303.2 919.207 1311.9C916.531 1320.66 912.16 1328.87 906.005 1336.6C903.106 1332.17 900.118 1328.25 897.13 1324.85C894.142 1321.46 891.064 1318.38 887.942 1315.7C884.776 1313.02 881.564 1310.61 878.309 1308.51C875.008 1306.41 871.574 1304.54 867.961 1302.89C877.015 1299.05 884.017 1294.09 889.013 1287.97C894.008 1281.86 896.461 1274.67 896.461 1266.32C896.461 1261.14 895.346 1256.41 893.071 1252.12C890.841 1247.79 887.63 1244.13 883.527 1241.05C879.424 1237.97 874.473 1235.6 868.764 1233.86C863.055 1232.12 856.722 1231.27 849.854 1231.27C842.985 1231.27 836.072 1232.07 830.096 1233.73C824.12 1235.38 818.946 1237.79 814.664 1240.91C810.338 1244.08 806.993 1247.92 804.629 1252.48C802.221 1257.03 801.017 1262.3 801.017 1268.19C801.017 1271.85 801.597 1275.34 802.756 1278.64C803.916 1281.95 805.432 1284.98 807.305 1287.79C809.179 1290.61 811.275 1293.2 813.639 1295.56C816.002 1297.93 818.322 1299.98 820.641 1301.81C815.869 1303.6 811.141 1305.88 806.503 1308.56C801.864 1311.23 797.716 1314.49 794.059 1318.2C790.402 1321.95 787.414 1326.33 785.139 1331.28C782.865 1336.28 781.705 1341.95 781.705 1348.29C781.705 1356.37 783.221 1363.52 786.254 1369.63C789.287 1375.8 793.479 1380.93 798.876 1385.08C804.273 1389.24 810.695 1392.36 818.143 1394.46C825.591 1396.56 833.709 1397.63 842.45 1397.63C849.185 1397.63 855.518 1397 861.405 1395.75C867.337 1394.5 872.734 1392.94 877.64 1391.02C882.546 1389.1 886.961 1386.96 890.841 1384.55C894.721 1382.14 898.066 1379.81 900.832 1377.58C903.374 1380.35 906.05 1382.94 908.904 1385.4C911.759 1387.85 914.747 1389.95 917.958 1391.74C921.125 1393.52 924.514 1394.95 928.082 1396.02C931.65 1397.05 935.397 1397.58 939.366 1397.58C944.317 1397.58 948.777 1397.18 952.791 1396.42C956.805 1395.62 960.863 1394.41 964.966 1392.76V1366.02C962.201 1367.45 958.945 1368.56 955.199 1369.32C951.453 1370.13 947.795 1370.48 944.183 1370.48L944.138 1370.62ZM834.11 1263.68C834.913 1261.94 836.117 1260.42 837.633 1259.13C839.15 1257.84 840.978 1256.85 843.03 1256.09C845.082 1255.34 847.356 1254.98 849.809 1254.98C851.816 1254.98 853.734 1255.29 855.518 1255.92C857.302 1256.54 858.908 1257.43 860.335 1258.59C861.762 1259.76 862.877 1261.18 863.724 1262.93C864.527 1264.67 864.973 1266.59 864.973 1268.77C864.973 1271.63 864.483 1274.13 863.457 1276.32C862.431 1278.51 861.093 1280.43 859.398 1282.03C857.703 1283.69 855.786 1285.12 853.556 1286.32C851.326 1287.53 849.006 1288.55 846.553 1289.45C842.673 1287.26 839.417 1284.45 836.786 1280.92C834.155 1277.39 832.861 1273.55 832.861 1269.35C832.861 1267.35 833.263 1265.43 834.11 1263.68ZM877.283 1361.2C874.339 1363.07 871.128 1364.72 867.694 1366.15C864.26 1367.58 860.602 1368.74 856.678 1369.59C852.797 1370.44 848.65 1370.89 844.234 1370.89C840.265 1370.89 836.652 1370.3 833.396 1369.14C830.141 1367.98 827.331 1366.38 824.967 1364.28C822.603 1362.18 820.775 1359.68 819.526 1356.73C818.232 1353.83 817.608 1350.57 817.608 1346.95C817.608 1342.89 818.277 1339.32 819.57 1336.24C820.864 1333.11 822.603 1330.34 824.789 1327.93C826.974 1325.48 829.427 1323.38 832.237 1321.55C835.047 1319.72 837.99 1318.07 841.068 1316.55C844.725 1318.2 848.382 1320.03 851.995 1322.04C855.607 1324.05 859.264 1326.55 862.922 1329.5C866.579 1332.44 870.281 1336.01 874.027 1340.17C877.773 1344.32 881.564 1349.41 885.355 1355.39C882.902 1357.4 880.182 1359.37 877.238 1361.24L877.283 1361.2Z" fill="url(#paint7_linear_120_45)"/>
<path d="M1028.61 1228.77C1024.1 1228.77 1020.31 1230.33 1017.24 1233.41C1014.16 1236.49 1012.6 1240.29 1012.6 1244.8V1379.1C1012.6 1383.61 1014.16 1387.41 1017.24 1390.49C1020.31 1393.57 1024.1 1395.13 1028.61 1395.13C1033.11 1395.13 1036.95 1393.57 1040.07 1390.49C1043.24 1387.41 1044.8 1383.61 1044.8 1379.1V1244.8C1044.8 1240.29 1043.24 1236.49 1040.07 1233.41C1036.9 1230.33 1033.07 1228.77 1028.61 1228.77Z" fill="url(#paint8_linear_120_45)"/>
<path d="M1181.94 1228.77C1177.88 1228.77 1174.32 1230.24 1171.33 1233.19C1168.3 1236.14 1166.78 1239.71 1166.78 1243.95V1347.49L1104.43 1242.92C1101.75 1238.41 1098.63 1234.93 1095.06 1232.48C1091.49 1230.02 1087.21 1228.77 1082.31 1228.77C1077.4 1228.77 1072.99 1230.51 1069.46 1234.04C1065.94 1237.57 1064.2 1241.76 1064.2 1246.67V1379.9C1064.2 1383.97 1065.72 1387.54 1068.75 1390.53C1071.78 1393.57 1075.3 1395.09 1079.36 1395.09C1083.42 1395.09 1087.17 1393.57 1090.2 1390.53C1093.23 1387.5 1094.75 1383.97 1094.75 1379.9V1276.37L1157.1 1380.93C1159.78 1385.31 1162.9 1388.75 1166.47 1391.25C1170.04 1393.79 1174.27 1395.04 1179.22 1395.04C1181.76 1395.04 1184.08 1394.59 1186.27 1393.66C1188.45 1392.76 1190.33 1391.42 1191.93 1389.77C1193.54 1388.08 1194.83 1386.16 1195.81 1383.97C1196.79 1381.78 1197.29 1379.41 1197.29 1376.91V1243.86C1197.29 1239.66 1195.77 1236.05 1192.78 1233.1C1189.75 1230.15 1186.14 1228.68 1181.94 1228.68V1228.77Z" fill="url(#paint9_linear_120_45)"/>
<path d="M1328.95 1228.77H1223.65C1219.85 1228.77 1216.6 1230.11 1213.83 1232.79C1211.11 1235.47 1209.73 1238.68 1209.73 1242.48C1209.73 1246.27 1211.11 1249.71 1213.83 1252.39C1216.55 1255.07 1219.85 1256.41 1223.65 1256.41H1260.31V1379.1C1260.31 1383.61 1261.87 1387.41 1264.95 1390.49C1268.02 1393.57 1271.81 1395.13 1276.32 1395.13C1280.82 1395.13 1284.61 1393.57 1287.69 1390.49C1290.77 1387.41 1292.33 1383.61 1292.33 1379.1V1256.41H1328.99C1332.78 1256.41 1336.04 1255.07 1338.8 1252.39C1341.52 1249.71 1342.91 1246.41 1342.91 1242.48C1342.91 1238.55 1341.52 1235.47 1338.8 1232.79C1336.08 1230.11 1332.78 1228.77 1328.99 1228.77H1328.95Z" fill="url(#paint10_linear_120_45)"/>
<path d="M1461.23 1256.41C1465.02 1256.41 1468.23 1255.07 1470.91 1252.39C1473.59 1249.71 1474.92 1246.41 1474.92 1242.48C1474.92 1238.55 1473.59 1235.47 1470.91 1232.79C1468.23 1230.11 1465.02 1228.77 1461.23 1228.77H1371.94C1368.55 1228.77 1365.79 1229.35 1363.6 1230.56C1361.42 1231.76 1359.72 1233.23 1358.43 1234.98C1357.18 1236.72 1356.33 1238.55 1355.89 1240.47C1355.48 1242.34 1355.26 1243.95 1355.26 1245.2V1378.43C1355.26 1381.38 1355.75 1383.92 1356.73 1386.02C1357.71 1388.12 1359.01 1389.86 1360.61 1391.2C1362.22 1392.54 1364 1393.52 1365.97 1394.15C1367.93 1394.77 1369.89 1395.08 1371.85 1395.08H1461.14C1464.93 1395.08 1468.14 1393.75 1470.82 1391.07C1473.5 1388.39 1474.83 1385.08 1474.83 1381.15C1474.83 1377.23 1473.5 1374.14 1470.82 1371.47C1468.14 1368.79 1464.93 1367.45 1461.14 1367.45H1387.42V1320.21H1449.32C1453.25 1320.21 1456.55 1318.83 1459.22 1316.1C1461.9 1313.38 1463.24 1310.07 1463.24 1306.28C1463.24 1302.48 1461.9 1299.22 1459.22 1296.46C1456.55 1293.73 1453.25 1292.35 1449.32 1292.35H1387.42V1256.32H1461.14L1461.23 1256.41Z" fill="url(#paint11_linear_120_45)"/>
<path d="M1589.45 1312.26C1598.73 1309.18 1605.69 1304.09 1610.42 1297.08C1615.1 1290.07 1617.46 1281.77 1617.46 1272.21C1617.46 1266.18 1616.3 1260.51 1613.98 1255.25C1611.67 1249.98 1608.54 1245.38 1604.62 1241.45C1600.69 1237.52 1596.06 1234.44 1590.7 1232.16C1585.35 1229.93 1579.73 1228.77 1573.84 1228.77H1505.38C1501.99 1228.77 1499.23 1229.35 1497.04 1230.56C1494.86 1231.76 1493.16 1233.23 1491.87 1234.98C1490.62 1236.72 1489.77 1238.55 1489.33 1240.47C1488.93 1242.34 1488.7 1243.95 1488.7 1245.2V1379.1C1488.7 1383.61 1490.26 1387.41 1493.34 1390.49C1496.42 1393.57 1500.21 1395.13 1504.71 1395.13C1509.22 1395.13 1513.01 1393.57 1516.18 1390.49C1519.34 1387.41 1520.9 1383.61 1520.9 1379.1V1327.44H1551.23C1556.27 1327.44 1560.55 1327.93 1564.08 1328.92C1567.6 1329.9 1570.45 1331.19 1572.73 1332.8C1574.96 1334.41 1576.61 1336.15 1577.68 1337.98C1578.75 1339.81 1579.42 1341.55 1579.69 1343.25L1584.33 1382.05C1584.73 1385.98 1586.42 1389.15 1589.37 1391.51C1592.31 1393.92 1595.83 1395.08 1599.89 1395.08C1601.85 1395.08 1603.86 1394.77 1605.91 1394.15C1607.96 1393.52 1609.79 1392.58 1611.4 1391.29C1613 1390.04 1614.25 1388.48 1615.19 1386.65C1616.08 1384.82 1616.44 1382.72 1616.13 1380.31L1611.26 1336.24C1611 1333.43 1610.15 1330.88 1608.72 1328.56C1607.29 1326.24 1605.64 1324.18 1603.68 1322.44C1601.72 1320.7 1599.49 1319.23 1597.04 1318.11C1594.58 1316.99 1592.09 1316.24 1589.54 1315.79C1587.85 1315.39 1587 1314.72 1587 1313.91C1587 1313.33 1587.76 1312.8 1589.32 1312.22L1589.45 1312.26ZM1583.43 1288.42C1582.23 1291.23 1580.58 1293.69 1578.48 1295.79C1576.39 1297.89 1573.93 1299.54 1571.12 1300.74C1568.31 1301.95 1565.37 1302.53 1562.29 1302.53H1521.04V1256.36H1562.29C1565.37 1256.36 1568.31 1256.94 1571.12 1258.15C1573.93 1259.35 1576.39 1261.01 1578.48 1263.1C1580.58 1265.2 1582.23 1267.66 1583.43 1270.47C1584.64 1273.28 1585.22 1276.23 1585.22 1279.31C1585.22 1282.39 1584.64 1285.56 1583.43 1288.38V1288.42Z" fill="url(#paint12_linear_120_45)"/>
<path d="M1713.93 1246.9C1712.95 1244.08 1711.75 1241.36 1710.36 1238.77C1708.98 1236.18 1707.33 1233.9 1705.41 1232.03C1703.54 1230.15 1701.36 1228.64 1698.99 1227.47C1696.58 1226.36 1693.95 1225.78 1691.01 1225.78C1687.93 1225.78 1685.17 1226.36 1682.8 1227.47C1680.39 1228.59 1678.3 1230.11 1676.47 1232.03C1674.64 1233.9 1673.03 1236.18 1671.61 1238.77C1670.18 1241.36 1669.02 1244.08 1668.04 1246.9L1624.24 1372.98C1623.53 1375.08 1623.17 1377.05 1623.17 1378.88C1623.17 1383.07 1624.6 1386.87 1627.5 1390.17C1630.35 1393.48 1634.28 1395.13 1639.18 1395.13C1642.57 1395.13 1645.69 1394.15 1648.55 1392.18C1651.4 1390.22 1653.41 1387.54 1654.57 1384.19L1666.57 1343.92H1715.4L1727.4 1384.19C1728.52 1387.58 1730.52 1390.22 1733.42 1392.18C1736.28 1394.15 1739.44 1395.13 1742.79 1395.13C1745.6 1395.13 1747.96 1394.59 1749.97 1393.57C1751.93 1392.5 1753.54 1391.2 1754.83 1389.68C1756.08 1388.12 1757.06 1386.38 1757.69 1384.41C1758.31 1382.45 1758.62 1380.62 1758.62 1378.92C1758.62 1377.09 1758.27 1375.13 1757.55 1373.03L1713.98 1246.94L1713.93 1246.9ZM1673.7 1319.23L1690.96 1261.05L1708 1319.23H1673.66H1673.7Z" fill="url(#paint13_linear_120_45)"/>
<path d="M1802.06 1272.21C1805.76 1266.72 1810.36 1262.26 1815.75 1258.82C1821.15 1255.38 1827.35 1253.64 1834.4 1253.64C1840.55 1253.64 1845.73 1254.58 1849.87 1256.36C1854.02 1258.19 1857.46 1260.43 1860.18 1263.01C1862.9 1265.6 1865.08 1268.42 1866.69 1271.45C1868.29 1274.49 1869.68 1277.12 1870.79 1279.36C1871.77 1281.32 1873.11 1282.79 1874.8 1283.78C1876.5 1284.76 1878.37 1285.25 1880.47 1285.25C1882.43 1285.25 1884.44 1284.85 1886.49 1284C1888.54 1283.15 1890.37 1282.03 1892.07 1280.61C1893.76 1279.22 1895.14 1277.53 1896.17 1275.56C1897.24 1273.6 1897.73 1271.5 1897.73 1269.22C1897.73 1266.27 1896.39 1262.35 1893.72 1257.43C1891.04 1252.52 1887.03 1247.74 1881.72 1243.1C1876.37 1238.46 1869.76 1234.44 1861.92 1230.96C1854.07 1227.52 1844.83 1225.78 1834.31 1225.78C1821.69 1225.78 1810.63 1228.19 1801.13 1232.97C1791.67 1237.74 1783.78 1244.13 1777.53 1252.03C1771.29 1259.98 1766.56 1269.13 1763.44 1279.53C1760.27 1289.94 1758.71 1300.7 1758.71 1311.77C1758.71 1322.84 1760.27 1333.78 1763.44 1344.14C1766.61 1354.45 1771.29 1363.61 1777.53 1371.56C1783.78 1379.5 1791.63 1385.84 1801.13 1390.62C1810.58 1395.4 1821.64 1397.81 1834.31 1397.81C1844.83 1397.81 1854.02 1396.11 1861.92 1392.76C1869.76 1389.37 1876.32 1385.4 1881.58 1380.75C1886.85 1376.11 1890.82 1371.33 1893.49 1366.42C1896.17 1361.51 1897.51 1357.49 1897.51 1354.41C1897.51 1352.18 1896.97 1350.03 1895.95 1348.07C1894.87 1346.11 1893.54 1344.41 1891.84 1343.02C1890.15 1341.64 1888.27 1340.48 1886.27 1339.63C1884.22 1338.78 1882.21 1338.38 1880.25 1338.38C1878.28 1338.38 1876.46 1338.87 1874.76 1339.85C1873.07 1340.84 1871.73 1342.31 1870.75 1344.27C1869.63 1346.69 1868.25 1349.32 1866.64 1352.27C1865.04 1355.21 1862.85 1358.03 1860.13 1360.71C1857.41 1363.38 1853.93 1365.62 1849.83 1367.45C1845.68 1369.28 1840.51 1370.17 1834.35 1370.17C1827.35 1370.17 1821.11 1368.47 1815.71 1364.99C1810.31 1361.55 1805.72 1357.09 1802.02 1351.6C1798.32 1346.11 1795.51 1339.9 1793.59 1332.93C1791.71 1325.97 1790.73 1318.91 1790.73 1311.73C1790.73 1304.54 1791.67 1297.71 1793.59 1290.74C1795.46 1283.78 1798.27 1277.57 1802.02 1272.08L1802.06 1272.21Z" fill="url(#paint14_linear_120_45)"/>
<path d="M2014.9 1228.77H1909.59C1905.8 1228.77 1902.55 1230.11 1899.78 1232.79C1897.06 1235.47 1895.68 1238.68 1895.68 1242.48C1895.68 1246.27 1897.06 1249.71 1899.78 1252.39C1902.5 1255.07 1905.8 1256.41 1909.59 1256.41H1946.26V1379.1C1946.26 1383.61 1947.82 1387.41 1950.89 1390.49C1953.97 1393.57 1957.76 1395.13 1962.27 1395.13C1966.77 1395.13 1970.56 1393.57 1973.64 1390.49C1976.72 1387.41 1978.28 1383.61 1978.28 1379.1V1256.41H2014.94C2018.73 1256.41 2021.99 1255.07 2024.75 1252.39C2027.47 1249.71 2028.86 1246.41 2028.86 1242.48C2028.86 1238.55 2027.47 1235.47 2024.75 1232.79C2022.03 1230.11 2018.73 1228.77 2014.94 1228.77H2014.9Z" fill="url(#paint15_linear_120_45)"/>
<path d="M2057.22 1228.77C2052.71 1228.77 2048.92 1230.33 2045.85 1233.41C2042.77 1236.49 2041.21 1240.29 2041.21 1244.8V1379.1C2041.21 1383.61 2042.77 1387.41 2045.85 1390.49C2048.92 1393.57 2052.71 1395.13 2057.22 1395.13C2061.72 1395.13 2065.51 1393.57 2068.68 1390.49C2071.85 1387.41 2073.41 1383.61 2073.41 1379.1V1244.8C2073.41 1240.29 2071.85 1236.49 2068.68 1233.41C2065.51 1230.33 2061.68 1228.77 2057.22 1228.77Z" fill="url(#paint16_linear_120_45)"/>
<path d="M2210.87 1233.95C2209.39 1232.48 2207.61 1231.23 2205.51 1230.24C2203.42 1229.26 2201.1 1228.77 2198.56 1228.77C2195.35 1228.77 2192.4 1229.53 2189.81 1231.09C2187.23 1232.65 2185.44 1234.98 2184.46 1238.06L2150.57 1347.89L2116.85 1238.06C2115.87 1234.98 2114.08 1232.65 2111.5 1231.09C2108.91 1229.53 2105.97 1228.77 2102.76 1228.77C2099.81 1228.77 2097.27 1229.26 2095.17 1230.24C2093.08 1231.23 2091.29 1232.48 2089.91 1234.04C2088.48 1235.6 2087.46 1237.3 2086.74 1239.22C2086.03 1241.09 2085.67 1242.92 2085.67 1244.58C2085.67 1246.23 2085.94 1247.75 2086.52 1249L2134.56 1383.3C2135.8 1386.96 2137.86 1389.82 2140.67 1391.96C2143.48 1394.06 2146.78 1395.13 2150.57 1395.13C2154.36 1395.13 2157.84 1394.06 2160.56 1391.96C2163.28 1389.86 2165.28 1386.96 2166.58 1383.3L2214.79 1249C2215.33 1247.75 2215.64 1246.27 2215.64 1244.58C2215.64 1242.74 2215.24 1240.87 2214.39 1238.99C2213.54 1237.12 2212.38 1235.42 2210.91 1233.95H2210.87Z" fill="url(#paint17_linear_120_45)"/>
<path d="M2333.74 1367.49H2260.02V1320.25H2321.92C2325.84 1320.25 2329.15 1318.87 2331.82 1316.15C2334.5 1313.42 2335.84 1310.12 2335.84 1306.32C2335.84 1302.53 2334.5 1299.27 2331.82 1296.5C2329.15 1293.78 2325.84 1292.39 2321.92 1292.39H2260.02V1256.36H2333.74C2337.53 1256.36 2340.74 1255.02 2343.42 1252.34C2346.09 1249.66 2347.43 1246.36 2347.43 1242.43C2347.43 1238.5 2346.09 1235.42 2343.42 1232.74C2340.74 1230.06 2337.53 1228.72 2333.74 1228.72H2244.45C2241.06 1228.72 2238.3 1229.31 2236.11 1230.51C2233.92 1231.72 2232.23 1233.19 2230.94 1234.93C2229.69 1236.67 2228.84 1238.5 2228.39 1240.42C2227.99 1242.3 2227.77 1243.91 2227.77 1245.16V1378.39C2227.77 1381.33 2228.26 1383.88 2229.24 1385.98C2230.22 1388.07 2231.52 1389.82 2233.12 1391.16C2234.73 1392.5 2236.51 1393.48 2238.47 1394.1C2240.44 1394.73 2242.4 1395.04 2244.36 1395.04H2333.65C2337.44 1395.04 2340.65 1393.7 2343.33 1391.02C2346 1388.34 2347.34 1385.04 2347.34 1381.11C2347.34 1377.18 2346 1374.1 2343.33 1371.42C2340.65 1368.74 2337.44 1367.4 2333.65 1367.4L2333.74 1367.49Z" fill="url(#paint18_linear_120_45)"/>
<path d="M576.678 741.878H422.407C376.87 741.878 344.535 735.851 329.193 719.866C313.761 703.971 304.172 673.923 304.172 625.837V4.55371H0V675.263C0 791.661 31.3538 882.521 94.0614 948.109C156.724 1013.61 244.14 1046.43 356.399 1046.43H718.818C709.408 1039.46 700.175 1030.17 691.478 1022.27C617.621 955.432 580.023 870.108 576.723 741.878H576.678Z" fill="url(#paint19_linear_120_45)"/>
<path d="M718.774 1046.43C709.363 1039.46 700.131 1030.17 691.434 1022.27C617.576 955.432 579.978 870.108 576.678 741.878H422.407C376.87 741.878 344.535 735.851 329.193 719.866C313.761 703.971 304.172 673.923 304.172 625.837V4.55371H0V675.263C0 791.661 31.3538 882.521 94.0614 948.109C156.724 1013.61 244.14 1046.43 356.399 1046.43H718.818H718.774Z" fill="url(#paint20_linear_120_45)"/>
<path d="M1471.98 1063.21H971.699C861.136 1063.21 777.645 1035.4 717.836 984.051V983.024C716.097 981.596 714.134 981.194 712.395 979.631C655.619 928.286 627.387 854.839 624.31 758.666C624.087 758.666 623.686 751.612 623.686 745.897V339.73C623.686 240.566 650.579 160.734 707.444 106.085C764.309 51.4797 842.761 21.2974 945.876 21.2974H1455.79C1447.72 21.2974 1439.69 37.2815 1431.79 43.8002C1338.67 121.265 1273.33 213.687 1236.31 325.844H1017.15C964.073 325.844 937.491 342.32 937.491 376.788C937.491 397.014 943.78 414.739 956.491 422.508C969.068 430.411 991.636 437.956 1023.97 437.956H1210.18C1207.5 454.075 1205.27 467.335 1203.71 484.078C1197.87 546.943 1200.54 598.289 1211.38 662.404H992.84C965.545 662.404 946.233 665.574 934.86 673.745C923.487 681.782 917.733 695.131 917.733 714.33C917.733 736.074 923.576 753.978 935.172 760.765C946.857 767.64 970.629 774.606 1006.49 774.606H1241.62C1266.28 822.647 1301.74 894.621 1348.48 950.833C1385.99 996.107 1427.29 1030.93 1471.93 1063.12L1471.98 1063.21Z" fill="url(#paint21_linear_120_45)"/>
<path d="M2316.75 394.201C2302.83 343.972 2282.18 297.493 2254.93 254.585L2316.75 394.201Z" fill="url(#paint22_linear_120_45)"/>
<path d="M2316.75 394.201C2302.83 343.971 2282.18 297.492 2254.93 254.585L2233.25 223.019C2207.39 188.416 2176.66 156.27 2141.2 126.757C2101.15 93.5385 2059.23 66.8833 2015.29 46.6576C1947.77 15.6269 1875.65 0 1799.03 0C1780.97 0 1762.68 0.892969 1744.08 2.54496C1595.47 16.3413 1472.82 81.3494 1376.44 197.659C1280.55 313.164 1239.57 445.636 1253.39 595.164C1267.22 744.646 1331.8 867.43 1447.22 963.29C1548.06 1047.14 1661.08 1089.15 1786.27 1089.15C1792.79 1089.15 1799.34 1088.8 1805.9 1088.62C1655.6 802.243 1574.07 566.365 1782.79 368.26L1600.07 324.326L2024.62 163.726L1956.56 579.849L1872.89 431.572C1618.67 729.957 2048.88 1025.57 2065.51 1015.84C2121.35 983.069 2171.93 939.492 2217.2 884.932C2310.81 772.105 2350.06 641.241 2335.08 492.472C2331.64 458.182 2325.4 425.455 2316.75 394.156V394.201Z" fill="url(#paint23_linear_120_45)"/>
<path d="M2459.51 969.049L2459.33 967.888L2478.96 965.12L2619.53 945.43L2835.62 915.159C2875.98 861.402 2896.23 803.314 2896.14 727.814C2896.1 659.234 2874.91 603.691 2832.63 530.2L2809.35 489.436C2791.2 457.691 2783.48 431.482 2783.48 410.81C2783.44 352.633 2816.09 302.671 2867.73 302.627C2879.82 302.627 3125.39 303.252 3125.39 303.252L3125.17 3.61621C3125.17 3.61621 2835.04 3.83945 2792.81 3.8841C2696.6 3.9734 2587.74 39.2903 2544.79 91.5736C2482.21 167.878 2441.13 231.457 2441.22 328.657C2441.27 409.337 2464.24 490.552 2510.13 571.142C2538.85 621.997 2553.21 655.26 2553.26 670.396C2553.26 693.568 2544.38 712.99 2526.5 728.35C2508.61 743.798 2486.36 751.567 2459.64 751.567C2448.81 751.567 2393.28 751.745 2338.47 751.835C2329.37 775.052 2318.84 798.224 2306.67 821.04C2256.22 915.918 2189.01 991.24 2105.83 1046.34C2186.11 1046.29 2307.25 1046.16 2400.99 1046.11L2404.3 1041.78L2459.6 969.094L2459.51 969.049Z" fill="url(#paint24_linear_120_45)"/>
<path d="M2505.76 1079.87L2497.64 1018.03L2505.76 1079.87Z" fill="url(#paint25_linear_120_45)"/>
<path d="M2423.83 1085.05L2506.16 1073.57L2505.63 1069.11C2505.63 1069.11 2505.36 1069.11 2505.23 1069.11L2497.64 1007.94L2495.1 987.355L2439.22 1063.97L2435.87 1068.53L2423.88 1084.96V1085L2423.83 1085.05Z" fill="url(#paint26_linear_120_45)"/>
<path d="M2495.42 998.205L2495.06 998.652L2497.6 1018.03L2505.18 1075.71H2505.58L2498 1018.03L2495.42 998.205Z" fill="url(#paint27_linear_120_45)"/>
<path d="M2574.8 1180.5C2555.58 1183.18 2537.83 1214.84 2544.21 1260.38C2546.44 1276.23 2553.71 1282.97 2564.19 1281.5C2584.26 1278.69 2593.27 1234.17 2594.69 1205.11L2595.36 1191.44C2592.02 1186.13 2585.55 1178.99 2574.8 1180.5Z" fill="url(#paint28_linear_120_45)"/>
<path d="M2864.61 1176.17C2863.27 1166.57 2867.29 1158.23 2876.34 1154.92C2872.95 1140.99 2865.37 1134.25 2854.93 1135.72C2840.8 1137.69 2828.13 1154.21 2826.12 1197.43C2825.72 1204.97 2826.66 1219.84 2827.64 1226.94C2830.14 1244.75 2838.3 1253.73 2850.16 1252.03C2865.42 1249.89 2875.9 1231.98 2878.48 1197.02C2870.68 1192.65 2865.91 1185.51 2864.61 1176.17Z" fill="url(#paint29_linear_120_45)"/>
<path d="M2555.36 1345.88C2545.86 1358.16 2541.53 1368.56 2542.91 1378.48C2543.94 1385.84 2548.93 1390.62 2557.67 1389.37C2577.43 1386.6 2589.39 1360.71 2591.53 1314.23C2574.22 1326.46 2562.36 1336.51 2555.36 1345.84V1345.88Z" fill="url(#paint30_linear_120_45)"/>
<path d="M3180.78 1131.79C3179.49 1122.46 3183.46 1113.84 3192.2 1110.59C3189.17 1101.21 3183.77 1097.64 3176.41 1098.66C3167.94 1099.87 3160.71 1108.08 3153.26 1124.69C3147.15 1138.54 3141.58 1156.35 3140.06 1182.78L3139.57 1193.81C3144.08 1199.26 3151.44 1204.53 3162.76 1202.96C3178.29 1200.77 3191.04 1180.55 3194.34 1152.69C3186.8 1148.27 3182.08 1141.12 3180.74 1131.79H3180.78Z" fill="url(#paint31_linear_120_45)"/>
<path d="M3279.17 886.271L3226.81 893.147L2871.48 939.894L2655.17 968.38L2514.46 986.909L2494.83 989.499L2494.97 990.66L2495.33 990.213L2497.91 1010.04L2505.49 1067.72L2506.03 1071.92L2423.7 1082.77H2423.25L2438.33 1197.38L2478.29 1501.75L3295.58 1394.19L3345 1387.67L3279.17 886.271ZM2758.15 1185.33C2750.79 1186.35 2745.22 1185.42 2745.22 1185.42C2745.22 1185.42 2747.98 1178.41 2746.91 1170.77C2746.38 1166.8 2744.33 1164.79 2740.09 1165.37C2735.59 1165.99 2729.88 1170.55 2722.38 1184.88C2713.73 1201.4 2706.86 1220.24 2705.66 1261.05C2705.17 1278.15 2708.83 1283.69 2708.83 1283.69C2708.83 1283.69 2704.95 1286.81 2694.51 1288.29C2672.74 1291.32 2669.04 1283.51 2669.67 1263.24L2669.85 1258.1C2669.85 1258.1 2669.53 1258.46 2669.31 1258.64C2659.94 1268.02 2643.53 1280.43 2628.01 1290.96L2627.92 1294.45C2626.09 1361.6 2604.91 1401.78 2563.12 1407.68C2543.89 1410.35 2529.76 1399.95 2527.3 1382.4C2524.98 1365.71 2532.7 1349.05 2544.92 1335.21C2557.05 1321.1 2570.57 1310.57 2592.15 1296.01L2592.73 1275.47C2583.9 1294.58 2571.01 1305.61 2556.34 1307.71C2533.19 1310.97 2512.63 1297.97 2507.99 1264.89C2499.16 1201.8 2531.72 1166.98 2564.77 1162.33C2578.91 1160.37 2589.57 1164.61 2597.24 1171.93C2600.31 1161.13 2606.87 1156.44 2620.74 1154.52C2630.33 1153.18 2635.28 1155.37 2635.28 1155.37C2635.28 1155.37 2632.02 1160.99 2631.62 1176.66L2628.46 1273.42C2628.46 1273.42 2655.26 1258.1 2670.38 1242.07L2672.57 1174.66C2673.19 1156.39 2669.44 1150.28 2669.44 1150.28C2669.44 1150.28 2673.32 1147.15 2683.76 1145.68C2705.53 1142.64 2709.32 1151.3 2708.6 1170.77L2708.07 1183.54C2721.89 1150.46 2739.42 1137.91 2752.13 1136.12C2765.96 1134.16 2775.81 1140.59 2777.82 1155.01C2780.05 1170.86 2772.02 1183.5 2758.15 1185.46V1185.33ZM3230.47 1155.37C3224.4 1192.25 3201.39 1217.12 3173.96 1220.96C3160.4 1222.88 3148.36 1219.08 3139.26 1211.71L3136.32 1299.81C3135.69 1318.07 3139.44 1324.18 3139.44 1324.18C3139.44 1324.18 3135.56 1327.31 3125.12 1328.78C3103.36 1331.82 3099.66 1324 3100.28 1303.73L3103.4 1209.03C3095.91 1221.63 3083.15 1233.73 3066.34 1236.09C3046.85 1238.82 3031.51 1228.01 3028.34 1205.37C3027.98 1202.83 3027.54 1199.7 3027.27 1195.73C3024.42 1204.21 3021.16 1211.89 3017.5 1218.46C3007.87 1236.23 2996.58 1245.91 2981.02 1248.1C2962.11 1250.74 2948.37 1239.13 2945.61 1219.62C2944.14 1209.17 2943.64 1199.44 2944.14 1184.34V1182.74C2937.4 1189.75 2927.37 1196.4 2915.46 1199.61C2910.55 1234.62 2887.76 1261.18 2849.36 1266.59C2819.43 1270.78 2794.73 1254.93 2789.82 1219.84C2782.64 1168.63 2807.53 1128.22 2855.83 1121.43C2888.88 1116.79 2910.86 1135.9 2915.37 1168.18C2916.26 1174.39 2916.53 1180.42 2916.44 1186.22C2931.07 1181.93 2940.52 1170.37 2944.8 1163.9L2945.74 1136.26C2946.37 1118 2942.62 1111.88 2942.62 1111.88C2942.62 1111.88 2946.5 1108.75 2956.94 1107.28C2978.7 1104.25 2982.4 1112.06 2981.78 1132.37L2979.64 1199.3C2979.06 1215.82 2984.05 1222.61 2992.26 1221.45C2998.46 1220.55 3004.75 1211.89 3010.5 1199.57C3020.09 1179.48 3027.98 1147.51 3028.7 1121.75C3029.05 1105.85 3025.71 1100.27 3025.71 1100.27C3025.71 1100.27 3029.59 1097.15 3040.03 1095.67C3061.79 1092.64 3065.49 1100.45 3064.87 1120.77L3062.82 1186.22C3062.37 1203.59 3068.26 1210.82 3078.47 1209.39C3087.88 1208.05 3098.99 1197.34 3104.34 1181.53L3106.57 1113.71C3107.19 1095.45 3103.45 1089.33 3103.45 1089.33C3103.45 1089.33 3107.33 1086.21 3117.76 1084.73C3139.53 1081.7 3143.18 1089.24 3142.61 1109.83L3142.47 1115.05C3151.35 1091.88 3165.53 1078.08 3183.33 1075.58C3209.59 1071.88 3226.63 1088.53 3230.73 1117.95C3231.94 1126.44 3232.21 1134.47 3231.81 1142.02C3253.21 1136.44 3263.74 1115.05 3263.74 1115.05C3267.4 1114.51 3269.8 1117.1 3269.8 1121.39C3269.49 1131.53 3253.35 1149.97 3230.51 1155.46L3230.47 1155.37Z" fill="url(#paint32_linear_120_45)"/>
<defs>
<linearGradient id="paint0_linear_120_45" x1="1760.56" y1="773.86" x2="1764.96" y2="775.088" gradientUnits="userSpaceOnUse">
<stop stop-color="#6226CF"/>
<stop offset="0.432292" stop-color="#5D23C9"/>
<stop offset="1" stop-color="#A61EDF"/>
</linearGradient>
<linearGradient id="paint1_linear_120_45" x1="1760.56" y1="773.941" x2="1764.94" y2="775.201" gradientUnits="userSpaceOnUse">
<stop stop-color="#6226CF"/>
<stop offset="0.432292" stop-color="#5D23C9"/>
<stop offset="1" stop-color="#A61EDF"/>
</linearGradient>
<linearGradient id="paint2_linear_120_45" x1="-65.1327" y1="1093.2" x2="352.115" y2="1192.22" gradientUnits="userSpaceOnUse">
<stop stop-color="#6226CF"/>
<stop offset="0.432292" stop-color="#5D23C9"/>
<stop offset="1" stop-color="#A61EDF"/>
</linearGradient>
<linearGradient id="paint3_linear_120_45" x1="156.445" y1="1093.24" x2="472.644" y2="1148.74" gradientUnits="userSpaceOnUse">
<stop stop-color="#6226CF"/>
<stop offset="0.432292" stop-color="#5D23C9"/>
<stop offset="1" stop-color="#A61EDF"/>
</linearGradient>
<linearGradient id="paint4_linear_120_45" x1="272.856" y1="1093.24" x2="632.534" y2="1165.74" gradientUnits="userSpaceOnUse">
<stop stop-color="#6226CF"/>
<stop offset="0.432292" stop-color="#5D23C9"/>
<stop offset="1" stop-color="#A61EDF"/>
</linearGradient>
<linearGradient id="paint5_linear_120_45" x1="525.538" y1="1093.2" x2="613.055" y2="1097.33" gradientUnits="userSpaceOnUse">
<stop stop-color="#6226CF"/>
<stop offset="0.432292" stop-color="#5D23C9"/>
<stop offset="1" stop-color="#A61EDF"/>
</linearGradient>
<linearGradient id="paint6_linear_120_45" x1="470.629" y1="1087.77" x2="826.151" y2="1157.17" gradientUnits="userSpaceOnUse">
<stop stop-color="#6226CF"/>
<stop offset="0.432292" stop-color="#5D23C9"/>
<stop offset="1" stop-color="#A61EDF"/>
</linearGradient>
<linearGradient id="paint7_linear_120_45" x1="605.394" y1="1095.7" x2="1070.94" y2="1220.83" gradientUnits="userSpaceOnUse">
<stop stop-color="#6226CF"/>
<stop offset="0.432292" stop-color="#5D23C9"/>
<stop offset="1" stop-color="#A61EDF"/>
</linearGradient>
<linearGradient id="paint8_linear_120_45" x1="981.618" y1="1093.2" x2="1069.13" y2="1097.33" gradientUnits="userSpaceOnUse">
<stop stop-color="#6226CF"/>
<stop offset="0.432292" stop-color="#5D23C9"/>
<stop offset="1" stop-color="#A61EDF"/>
</linearGradient>
<linearGradient id="paint9_linear_120_45" x1="936.16" y1="1093.07" x2="1285.37" y2="1161.22" gradientUnits="userSpaceOnUse">
<stop stop-color="#6226CF"/>
<stop offset="0.432292" stop-color="#5D23C9"/>
<stop offset="1" stop-color="#A61EDF"/>
</linearGradient>
<linearGradient id="paint10_linear_120_45" x1="1081.61" y1="1093.2" x2="1431.03" y2="1161.45" gradientUnits="userSpaceOnUse">
<stop stop-color="#6226CF"/>
<stop offset="0.432292" stop-color="#5D23C9"/>
<stop offset="1" stop-color="#A61EDF"/>
</linearGradient>
<linearGradient id="paint11_linear_120_45" x1="1240.14" y1="1093.24" x2="1556.34" y2="1148.74" gradientUnits="userSpaceOnUse">
<stop stop-color="#6226CF"/>
<stop offset="0.432292" stop-color="#5D23C9"/>
<stop offset="1" stop-color="#A61EDF"/>
</linearGradient>
<linearGradient id="paint12_linear_120_45" x1="1364.83" y1="1093.2" x2="1703.48" y2="1157.15" gradientUnits="userSpaceOnUse">
<stop stop-color="#6226CF"/>
<stop offset="0.432292" stop-color="#5D23C9"/>
<stop offset="1" stop-color="#A61EDF"/>
</linearGradient>
<linearGradient id="paint13_linear_120_45" x1="1492.86" y1="1087.77" x2="1848.27" y2="1157.13" gradientUnits="userSpaceOnUse">
<stop stop-color="#6226CF"/>
<stop offset="0.432292" stop-color="#5D23C9"/>
<stop offset="1" stop-color="#A61EDF"/>
</linearGradient>
<linearGradient id="paint14_linear_120_45" x1="1624.97" y1="1085.59" x2="1989.46" y2="1157.45" gradientUnits="userSpaceOnUse">
<stop stop-color="#6226CF"/>
<stop offset="0.432292" stop-color="#5D23C9"/>
<stop offset="1" stop-color="#A61EDF"/>
</linearGradient>
<linearGradient id="paint15_linear_120_45" x1="1767.56" y1="1093.2" x2="2116.98" y2="1161.45" gradientUnits="userSpaceOnUse">
<stop stop-color="#6226CF"/>
<stop offset="0.432292" stop-color="#5D23C9"/>
<stop offset="1" stop-color="#A61EDF"/>
</linearGradient>
<linearGradient id="paint16_linear_120_45" x1="2010.23" y1="1093.2" x2="2097.74" y2="1097.33" gradientUnits="userSpaceOnUse">
<stop stop-color="#6226CF"/>
<stop offset="0.432292" stop-color="#5D23C9"/>
<stop offset="1" stop-color="#A61EDF"/>
</linearGradient>
<linearGradient id="paint17_linear_120_45" x1="1960.64" y1="1093.2" x2="2302.23" y2="1158.31" gradientUnits="userSpaceOnUse">
<stop stop-color="#6226CF"/>
<stop offset="0.432292" stop-color="#5D23C9"/>
<stop offset="1" stop-color="#A61EDF"/>
</linearGradient>
<linearGradient id="paint18_linear_120_45" x1="2112.65" y1="1093.19" x2="2428.85" y2="1148.7" gradientUnits="userSpaceOnUse">
<stop stop-color="#6226CF"/>
<stop offset="0.432292" stop-color="#5D23C9"/>
<stop offset="1" stop-color="#A61EDF"/>
</linearGradient>
<linearGradient id="paint19_linear_120_45" x1="-691.555" y1="-844.492" x2="1212.46" y2="-523.976" gradientUnits="userSpaceOnUse">
<stop stop-color="#6226CF"/>
<stop offset="0.432292" stop-color="#5D23C9"/>
<stop offset="1" stop-color="#A61EDF"/>
</linearGradient>
<linearGradient id="paint20_linear_120_45" x1="-691.555" y1="-844.492" x2="1212.46" y2="-523.976" gradientUnits="userSpaceOnUse">
<stop stop-color="#6226CF"/>
<stop offset="0.432292" stop-color="#5D23C9"/>
<stop offset="1" stop-color="#A61EDF"/>
</linearGradient>
<linearGradient id="paint21_linear_120_45" x1="-192.433" y1="-827.785" x2="2030.49" y2="-386.203" gradientUnits="userSpaceOnUse">
<stop stop-color="#6226CF"/>
<stop offset="0.432292" stop-color="#5D23C9"/>
<stop offset="1" stop-color="#A61EDF"/>
</linearGradient>
<linearGradient id="paint22_linear_120_45" x1="2195.46" y1="140.809" x2="2361.89" y2="158.789" gradientUnits="userSpaceOnUse">
<stop stop-color="#6226CF"/>
<stop offset="0.432292" stop-color="#5D23C9"/>
<stop offset="1" stop-color="#A61EDF"/>
</linearGradient>
<linearGradient id="paint23_linear_120_45" x1="204.616" y1="-887.578" x2="3000.65" y2="-206.465" gradientUnits="userSpaceOnUse">
<stop stop-color="#6226CF"/>
<stop offset="0.432292" stop-color="#5D23C9"/>
<stop offset="1" stop-color="#A61EDF"/>
</linearGradient>
<linearGradient id="paint24_linear_120_45" x1="1124.95" y1="-846.121" x2="3752.54" y2="-219.253" gradientUnits="userSpaceOnUse">
<stop stop-color="#6226CF"/>
<stop offset="0.432292" stop-color="#5D23C9"/>
<stop offset="1" stop-color="#A61EDF"/>
</linearGradient>
<linearGradient id="paint25_linear_120_45" x1="2489.84" y1="967.636" x2="2511.92" y2="968.343" gradientUnits="userSpaceOnUse">
<stop stop-color="#6226CF"/>
<stop offset="0.432292" stop-color="#5D23C9"/>
<stop offset="1" stop-color="#A61EDF"/>
</linearGradient>
<linearGradient id="paint26_linear_120_45" x1="2343.83" y1="907.745" x2="2559.96" y2="952.404" gradientUnits="userSpaceOnUse">
<stop stop-color="#6226CF"/>
<stop offset="0.432292" stop-color="#5D23C9"/>
<stop offset="1" stop-color="#A61EDF"/>
</linearGradient>
<linearGradient id="paint27_linear_120_45" x1="2484.93" y1="935.041" x2="2513.57" y2="935.989" gradientUnits="userSpaceOnUse">
<stop stop-color="#6226CF"/>
<stop offset="0.432292" stop-color="#5D23C9"/>
<stop offset="1" stop-color="#A61EDF"/>
</linearGradient>
<linearGradient id="paint28_linear_120_45" x1="2492.4" y1="1097.66" x2="2633.1" y2="1115.43" gradientUnits="userSpaceOnUse">
<stop stop-color="#6226CF"/>
<stop offset="0.432292" stop-color="#5D23C9"/>
<stop offset="1" stop-color="#A61EDF"/>
</linearGradient>
<linearGradient id="paint29_linear_120_45" x1="2775.56" y1="1040.41" x2="2916.75" y2="1055.9" gradientUnits="userSpaceOnUse">
<stop stop-color="#6226CF"/>
<stop offset="0.432292" stop-color="#5D23C9"/>
<stop offset="1" stop-color="#A61EDF"/>
</linearGradient>
<linearGradient id="paint30_linear_120_45" x1="2495.65" y1="1252.83" x2="2625.5" y2="1273.38" gradientUnits="userSpaceOnUse">
<stop stop-color="#6226CF"/>
<stop offset="0.432292" stop-color="#5D23C9"/>
<stop offset="1" stop-color="#A61EDF"/>
</linearGradient>
<linearGradient id="paint31_linear_120_45" x1="3086.88" y1="1013.13" x2="3233.67" y2="1031.86" gradientUnits="userSpaceOnUse">
<stop stop-color="#6226CF"/>
<stop offset="0.432292" stop-color="#5D23C9"/>
<stop offset="1" stop-color="#A61EDF"/>
</linearGradient>
<linearGradient id="paint32_linear_120_45" x1="1536.46" y1="384.703" x2="3751.44" y2="1194.07" gradientUnits="userSpaceOnUse">
<stop stop-color="#6226CF"/>
<stop offset="0.432292" stop-color="#5D23C9"/>
<stop offset="1" stop-color="#A61EDF"/>
</linearGradient>
</defs>
</svg>
