<svg width="21" height="22" viewBox="0 0 21 22" fill="none" xmlns="http://www.w3.org/2000/svg">
<g id="Frame" clip-path="url(#clip0_143_170)">
<g id="Group">
<path id="Vector" d="M10.5 0.705078C6.15825 0.705078 2.625 4.26283 2.625 8.63695C2.625 14.8521 9.75975 21.2693 10.0634 21.5388C10.1834 21.6463 10.3388 21.7057 10.4998 21.7059C10.6609 21.7061 10.8164 21.6469 10.9366 21.5397C11.2402 21.2693 18.375 14.8521 18.375 8.63695C18.375 4.26283 14.8418 0.705078 10.5 0.705078ZM10.5 12.9551C8.08763 12.9551 6.125 10.9925 6.125 8.58008C6.125 6.1677 8.08763 4.20508 10.5 4.20508C12.9124 4.20508 14.875 6.1677 14.875 8.58008C14.875 10.9925 12.9124 12.9551 10.5 12.9551Z" fill="#9F9F9F"/>
</g>
</g>
<defs>
<clipPath id="clip0_143_170">
<rect width="21" height="21" fill="white" transform="translate(0 0.705078)"/>
</clipPath>
</defs>
</svg>
