<svg width="20" height="20" viewBox="0 0 20 20" fill="none" xmlns="http://www.w3.org/2000/svg">
<g clip-path="url(#clip0_88_3666)">
<path d="M12.9736 11.1515C12.0631 11.7149 10.9908 12.0159 9.8935 12.0159C8.79624 12.0159 7.72389 11.7149 6.81342 11.1515C5.90226 11.7263 4.82271 12.0327 3.71795 12.03C2.97276 12.0324 2.23542 11.8899 1.5542 11.612V17.712C1.55603 18.2751 1.79999 18.8148 2.23282 19.213C2.66564 19.6112 3.25215 19.8357 3.86425 19.8374H6.55932V15.5865C6.55932 15.2107 6.72157 14.8503 7.01038 14.5846C7.2992 14.3189 7.69091 14.1696 8.09935 14.1696H11.9494C12.3579 14.1696 12.7496 14.3189 13.0384 14.5846C13.3272 14.8503 13.4895 15.2107 13.4895 15.5865V19.8374H16.1845C16.7966 19.8357 17.3832 19.6112 17.816 19.213C18.2488 18.8148 18.4928 18.2751 18.4946 17.712V11.5057C17.6259 11.9126 16.6532 12.0946 15.6808 12.0322C14.7083 11.9698 13.7725 11.6654 12.9736 11.1515Z" fill="#9F9F9F"/>
<path d="M8.09922 15.5864H11.9493V19.8373H8.09922V15.5864ZM5.52659 10.202L6.831 0H4.07356C3.58889 0.000140374 3.11654 0.140537 2.72339 0.401317C2.33023 0.662096 2.03618 1.03005 1.88286 1.45308L0.218082 6.04966C-0.062405 6.77222 -0.0726097 7.56027 0.189087 8.28878C0.450784 9.01728 0.969395 9.64452 1.66264 10.071C2.23996 10.397 2.89898 10.5803 3.57591 10.6033C4.25283 10.6263 4.92474 10.488 5.52659 10.202ZM19.5725 6.04966L17.9054 1.45308C17.7521 1.03005 17.458 0.662096 17.0649 0.401317C16.6717 0.140537 16.1994 0.000140374 15.7147 0H13.2175L14.5389 10.331C15.1138 10.5637 15.7424 10.6617 16.3686 10.6164C16.9947 10.571 17.5989 10.3836 18.1272 10.071C18.8209 9.64487 19.3399 9.01769 19.6017 8.28909C19.8636 7.56049 19.8533 6.77226 19.5725 6.04966ZM12.4637 9.72381C12.58 9.63138 12.7243 9.57401 12.8772 9.55945L11.6552 0H8.39336L7.16133 9.63525C7.21987 9.659 7.27476 9.68973 7.32458 9.72665C8.04059 10.2906 8.9522 10.6002 9.8947 10.5997C10.8372 10.5992 11.7484 10.2885 12.4637 9.72381Z" fill="#9F9F9F"/>
</g>
<defs>
<clipPath id="clip0_88_3666">
<rect width="20" height="20" fill="white"/>
</clipPath>
</defs>
</svg>
