<svg width="24" height="22" viewBox="0 0 24 22" fill="none" xmlns="http://www.w3.org/2000/svg">
<g id="Group">
<path id="Vector" d="M13.7748 0H1.01929C0.655136 0 0.318577 0.359475 0.136557 0.942892C-0.0455188 1.52631 -0.0455188 2.24477 0.136557 2.8282C0.318632 3.41162 0.655167 3.77109 1.01929 3.77109H13.7748C14.139 3.77109 14.4756 3.41162 14.6576 2.8282C14.8396 2.24478 14.8396 1.52632 14.6576 0.942892C14.4755 0.359475 14.139 0 13.7748 0Z" fill="#6226CF"/>
<path id="Vector_2" d="M21.5483 8.88849H1.5945C1.02484 8.88849 0.498356 9.24796 0.213618 9.83138C-0.0712062 10.4148 -0.0712062 11.1333 0.213618 11.7167C0.498443 12.3001 1.02489 12.6596 1.5945 12.6596H21.5483C22.1179 12.6596 22.6444 12.3001 22.9292 11.7167C23.214 11.1333 23.214 10.4148 22.9292 9.83138C22.6443 9.24796 22.1179 8.88849 21.5483 8.88849Z" fill="#6226CF"/>
<path id="Vector_3" d="M23.1428 19.6619C23.1428 19.162 23.0265 18.6825 22.8197 18.3288C22.6126 17.9751 22.332 17.7765 22.0391 17.7765H8.22679C7.83246 17.7765 7.46802 18.136 7.27092 18.7194C7.07376 19.3028 7.07376 20.0213 7.27092 20.6047C7.46808 21.1881 7.83249 21.5476 8.22679 21.5476H22.0391C22.332 21.5476 22.6126 21.349 22.8197 20.9953C23.0265 20.6416 23.1428 20.1622 23.1428 19.6619Z" fill="#6226CF"/>
</g>
</svg>
