<svg width="19" height="19" viewBox="0 0 19 19" fill="none" xmlns="http://www.w3.org/2000/svg">
<path d="M15.3333 0.791656H3.66659C3.4669 0.793841 3.27468 0.864075 3.12492 0.989573C3.7192 1.1882 4.24206 1.54276 4.63291 2.01214C5.02376 2.48153 5.26659 3.04653 5.33325 3.64166C5.34599 3.74687 5.34599 3.85311 5.33325 3.95832V17.4167C5.33286 17.5681 5.37818 17.7164 5.46385 17.8441C5.54952 17.9718 5.67194 18.0735 5.81659 18.1371C5.96158 18.2005 6.12268 18.223 6.28075 18.202C6.43882 18.1809 6.5872 18.1172 6.70825 18.0183L9.08325 16.0867L11.4583 18.0183C11.6092 18.141 11.8013 18.2084 11.9999 18.2084C12.1985 18.2084 12.3906 18.141 12.5416 18.0183L14.9166 16.0867L17.2916 18.0183C17.4425 18.141 17.6346 18.2083 17.8333 18.2083C17.9538 18.2075 18.0729 18.1833 18.1833 18.1371C18.3279 18.0735 18.4503 17.9718 18.536 17.8441C18.6217 17.7164 18.667 17.5681 18.6666 17.4167V3.95832C18.6666 3.11847 18.3154 2.31302 17.6903 1.71915C17.0652 1.12529 16.2173 0.791656 15.3333 0.791656ZM14.4999 11.875H9.49992C9.2789 11.875 9.06694 11.7916 8.91066 11.6431C8.75438 11.4946 8.66659 11.2933 8.66659 11.0833C8.66659 10.8734 8.75438 10.672 8.91066 10.5235C9.06694 10.3751 9.2789 10.2917 9.49992 10.2917H14.4999C14.7209 10.2917 14.9329 10.3751 15.0892 10.5235C15.2455 10.672 15.3333 10.8734 15.3333 11.0833C15.3333 11.2933 15.2455 11.4946 15.0892 11.6431C14.9329 11.7916 14.7209 11.875 14.4999 11.875ZM14.4999 8.70832H9.49992C9.2789 8.70832 9.06694 8.62492 8.91066 8.47645C8.75438 8.32798 8.66659 8.12662 8.66659 7.91666C8.66659 7.70669 8.75438 7.50533 8.91066 7.35686C9.06694 7.2084 9.2789 7.12499 9.49992 7.12499H14.4999C14.7209 7.12499 14.9329 7.2084 15.0892 7.35686C15.2455 7.50533 15.3333 7.70669 15.3333 7.91666C15.3333 8.12662 15.2455 8.32798 15.0892 8.47645C14.9329 8.62492 14.7209 8.70832 14.4999 8.70832ZM14.4999 5.54166H9.49992C9.2789 5.54166 9.06694 5.45825 8.91066 5.30978C8.75438 5.16132 8.66659 4.95995 8.66659 4.74999C8.66659 4.54003 8.75438 4.33866 8.91066 4.1902C9.06694 4.04173 9.2789 3.95832 9.49992 3.95832H14.4999C14.7209 3.95832 14.9329 4.04173 15.0892 4.1902C15.2455 4.33866 15.3333 4.54003 15.3333 4.74999C15.3333 4.95995 15.2455 5.16132 15.0892 5.30978C14.9329 5.45825 14.7209 5.54166 14.4999 5.54166ZM3.66659 3.95832V10.2917H1.16659C0.945572 10.2917 0.73361 10.2082 0.57733 10.0598C0.421049 9.91132 0.333252 9.70995 0.333252 9.49999V3.64166C0.377455 3.22173 0.595442 2.83568 0.939258 2.56845C1.28308 2.30121 1.72456 2.17466 2.16659 2.21666C2.60861 2.25865 3.01498 2.46574 3.29628 2.79236C3.57759 3.11899 3.71079 3.5384 3.66659 3.95832Z" fill="#9F9F9F"/>
</svg>
