<svg width="38" height="28" viewBox="0 0 38 28" fill="none" xmlns="http://www.w3.org/2000/svg">
<g id="Group">
<path id="Vector" d="M17.3936 0.639531C17.1225 0.638944 16.8539 0.691913 16.6033 0.795397C16.3527 0.898882 16.125 1.05084 15.9333 1.24256C15.7415 1.43428 15.5896 1.66197 15.4861 1.91257C15.3826 2.16317 15.3296 2.43175 15.3302 2.70287C15.3302 3.84596 16.2505 4.76622 17.3936 4.76622H34.4908C34.7619 4.7668 35.0305 4.71383 35.2811 4.61035C35.5317 4.50687 35.7594 4.3549 35.9511 4.16319C36.1428 3.97147 36.2948 3.74378 36.3983 3.49318C36.5018 3.24257 36.5547 2.974 36.5541 2.70287C36.5547 2.43175 36.5018 2.16317 36.3983 1.91257C36.2948 1.66197 36.1428 1.43428 35.9511 1.24256C35.7594 1.05084 35.5317 0.898882 35.2811 0.795397C35.0305 0.691913 34.7619 0.638944 34.4908 0.639531H17.3936ZM11.2013 4.76399C8.23107 4.76694 5.38334 5.94833 3.28326 8.04882C1.18318 10.1493 0.00235963 12.9973 0 15.9675C0 22.1464 5.02244 27.1689 11.2013 27.1689C17.3802 27.1689 22.4026 22.1464 22.4026 15.9675C22.4003 12.9973 21.2195 10.1493 19.1194 8.04882C17.0193 5.94833 14.1716 4.76694 11.2013 4.76399ZM18.4364 5.94495C19.9434 7.03219 21.1888 8.442 22.0818 10.0716H30.9501C31.2211 10.0719 31.4894 10.0187 31.7398 9.91513C31.9901 9.81151 32.2175 9.6595 32.409 9.46781C32.6005 9.27613 32.7523 9.04853 32.8556 8.79808C32.9589 8.54762 33.0118 8.27923 33.0113 8.00829C33.0118 7.73716 32.9589 7.46859 32.8554 7.21799C32.7519 6.96739 32.5999 6.7397 32.4082 6.54798C32.2165 6.35626 31.9888 6.2043 31.7382 6.10082C31.4876 5.99733 31.219 5.94436 30.9479 5.94495H18.4364ZM11.1991 7.42004C13.4664 7.42004 15.641 8.32043 17.2447 9.92327C18.8483 11.5261 19.7499 13.7002 19.751 15.9675C19.7487 18.2345 18.8468 20.4079 17.2434 22.0105C15.6399 23.6131 13.4661 24.5139 11.1991 24.515C8.93216 24.515 6.75807 23.6145 5.1551 22.0115C3.55213 20.4086 2.6516 18.2345 2.6516 15.9675C2.6516 13.7006 3.55213 11.5265 5.1551 9.92354C6.75807 8.32058 8.93216 7.42004 11.1991 7.42004ZM11.1991 8.601C10.2316 8.60071 9.27358 8.79105 8.3797 9.16115C7.48582 9.53125 6.67362 10.0739 5.98951 10.758C5.30541 11.4421 4.76281 12.2543 4.39271 13.1481C4.02261 14.042 3.83227 15.0001 3.83256 15.9675C3.86616 17.9 4.6574 19.7419 6.03587 21.0966C7.41433 22.4513 9.26972 23.2104 11.2024 23.2104C13.1351 23.2104 14.9905 22.4513 16.369 21.0966C17.7475 19.7419 18.5387 17.9 18.5723 15.9675C18.572 14.9994 18.381 14.0408 18.0102 13.1464C17.6393 12.2521 17.0959 11.4396 16.411 10.7553C15.7261 10.071 14.9131 9.52839 14.0185 9.15836C13.1238 8.78834 12.165 8.59819 11.1969 8.59877L11.1991 8.601ZM11.2058 10.9562C11.4954 10.9562 11.7918 11.1568 11.7918 11.5445V12.1216C12.8257 12.3823 13.4474 13.1109 13.7393 14.0357C13.9398 14.8066 12.8636 15.1163 12.6118 14.3877C12.3756 13.6435 11.9054 13.2625 11.1857 13.2357C10.3813 13.2424 9.75965 13.844 9.75965 14.6105C9.75965 14.9737 9.89112 15.0852 10.0649 15.1721C10.3011 15.2857 10.7579 15.357 11.2682 15.4105C11.774 15.464 12.3377 15.4996 12.8636 15.7581C13.3917 16.0166 13.8306 16.5201 13.8306 17.378C13.8246 17.9642 13.6196 18.5309 13.2491 18.9852C12.8787 19.4394 12.3648 19.7543 11.7918 19.8781V20.3906C11.7918 21.1571 10.6131 21.1883 10.6131 20.3906V19.8714C9.8421 19.6731 9.05331 19.1316 8.67451 17.9551C8.45837 17.202 9.54129 16.8566 9.79976 17.5986C10.0226 18.3384 10.5529 18.7528 11.2258 18.7662C11.599 18.771 11.9587 18.6274 12.2261 18.3672C12.4935 18.1069 12.6466 17.7511 12.6519 17.378C12.6519 16.9769 12.4915 16.8967 12.3444 16.8165C12.1104 16.7029 11.6537 16.6338 11.1434 16.5803C10.6354 16.5268 10.0738 16.4912 9.54797 16.2327C9.01988 15.9764 8.58092 15.4796 8.58092 14.6105C8.58092 13.3761 9.45885 12.3689 10.6131 12.1082V11.5445C10.6131 11.1479 10.9161 10.954 11.2058 10.9562ZM22.6455 11.2504C23.1781 12.5338 23.4989 13.9242 23.568 15.3771H35.6673C35.9386 15.3779 36.2074 15.3252 36.4583 15.2218C36.7092 15.1185 36.9371 14.9666 37.1291 14.7748C37.321 14.5831 37.4732 14.3553 37.5768 14.1045C37.6804 13.8538 37.7335 13.585 37.7329 13.3137C37.7335 13.0426 37.6805 12.774 37.577 12.5234C37.4735 12.2728 37.3216 12.0451 37.1298 11.8534C36.9381 11.6617 36.7104 11.5097 36.4598 11.4062C36.2092 11.3028 35.9407 11.2498 35.6695 11.2504H22.6455ZM23.568 16.5558C23.5016 17.9744 23.1894 19.3706 22.6455 20.6825H35.6695C35.9407 20.6831 36.2092 20.6301 36.4598 20.5266C36.7104 20.4231 36.9381 20.2712 37.1298 20.0794C37.3216 19.8877 37.4735 19.66 37.577 19.4094C37.6805 19.1588 37.7335 18.8903 37.7329 18.6191C37.7335 18.348 37.6805 18.0794 37.577 17.8288C37.4735 17.5782 37.3216 17.3505 37.1298 17.1588C36.9381 16.9671 36.7104 16.8151 36.4598 16.7117C36.2092 16.6082 35.9407 16.5552 35.6695 16.5558H23.568ZM22.084 21.8634C21.1932 23.4868 19.9526 24.8919 18.452 25.9768C18.4921 25.979 18.53 25.9879 18.5723 25.9879H35.6673C35.9386 25.9888 36.2074 25.936 36.4583 25.8327C36.7092 25.7293 36.9371 25.5774 37.1291 25.3857C37.321 25.1939 37.4732 24.9661 37.5768 24.7154C37.6804 24.4646 37.7335 24.1959 37.7329 23.9246C37.7335 23.6532 37.6804 23.3845 37.5768 23.1337C37.4732 22.883 37.321 22.6552 37.1291 22.4634C36.9371 22.2717 36.7092 22.1198 36.4583 22.0164C36.2074 21.9131 35.9386 21.8603 35.6673 21.8612L22.084 21.8634Z" fill="#6226CF"/>
</g>
</svg>
