<svg width="29" height="29" viewBox="0 0 29 29" fill="none" xmlns="http://www.w3.org/2000/svg">
<g id="Group">
<path id="Vector" d="M27.5275 20.7424L23.5742 16.8356C22.1623 15.4403 19.7621 15.9985 19.1973 17.8123C18.7737 19.0681 17.3619 19.7657 16.0912 19.4866C13.2674 18.789 9.45528 15.1613 8.74934 12.2312C8.32577 10.9754 9.17291 9.58009 10.4436 9.16156C12.2791 8.60345 12.8438 6.23148 11.4319 4.8362L7.47864 0.92942C6.34913 -0.0472742 4.65486 -0.0472742 3.66654 0.92942L0.983955 3.58045C-1.69863 6.371 1.26633 13.766 7.90221 20.3238C14.5381 26.8816 22.0211 29.9513 24.8449 27.1606L27.5275 24.5096C28.5158 23.3934 28.5158 21.7191 27.5275 20.7424Z" fill="#6226CF"/>
</g>
</svg>
