<svg width="18" height="19" viewBox="0 0 18 19" fill="none" xmlns="http://www.w3.org/2000/svg">
<g id="Group">
<path id="Vector" d="M4.84476 4.69831C4.59171 4.44505 4.18114 4.44505 3.92809 4.69831C2.98852 5.63787 2.52672 6.94674 2.66093 8.28954C2.69441 8.62405 2.97622 8.87341 3.30532 8.87341C3.32695 8.87341 3.34874 8.87231 3.37037 8.87015C3.72671 8.83451 3.98666 8.51661 3.95102 8.16051C3.8555 7.20624 4.18138 6.27836 4.84476 5.61495C5.09802 5.36193 5.09802 4.95133 4.84476 4.69831Z" fill="#9F9F9F"/>
<path id="Vector_2" d="M7.41193 0.705078C3.32498 0.705078 0 4.03006 0 8.11701C0 12.204 3.32498 15.5289 7.41193 15.5289C11.4989 15.5289 14.8239 12.204 14.8239 8.11701C14.8239 4.03006 11.4989 0.705078 7.41193 0.705078ZM7.41193 14.2324C4.03983 14.2324 1.29656 11.4891 1.29656 8.11701C1.29656 4.74491 4.03983 2.00164 7.41193 2.00164C10.7838 2.00164 13.5273 4.74491 13.5273 8.11701C13.5273 11.4891 10.784 14.2324 7.41193 14.2324Z" fill="#9F9F9F"/>
<path id="Vector_3" d="M17.3567 17.1452L12.6459 12.4344C12.3926 12.1811 11.9825 12.1811 11.7292 12.4344C11.4759 12.6875 11.4759 13.098 11.7292 13.3511L16.44 18.0619C16.5001 18.1222 16.5716 18.17 16.6502 18.2026C16.7289 18.2352 16.8132 18.2519 16.8983 18.2518C17.0643 18.2518 17.2301 18.1885 17.3567 18.0619C17.6099 17.8088 17.6099 17.3982 17.3567 17.1452Z" fill="#9F9F9F"/>
</g>
</svg>
